<svg xmlns="http://www.w3.org/2000/svg" xmlns:xlink="http://www.w3.org/1999/xlink" width="500" zoomAndPan="magnify" viewBox="0 0 375 374.999991" height="500" preserveAspectRatio="xMidYMid meet" version="1.0"><defs><g/></defs><g fill="#000000" fill-opacity="1"><g transform="translate(60.524415, 217.499986)"><g><path d="M 12.375 0.53125 C 10.226562 0.53125 8.40625 0.117188 6.90625 -0.703125 C 5.40625 -1.535156 4.28125 -2.660156 3.53125 -4.078125 C 2.78125 -5.503906 2.40625 -7.09375 2.40625 -8.84375 C 2.40625 -11 2.90625 -12.765625 3.90625 -14.140625 C 4.90625 -15.515625 6.191406 -16.613281 7.765625 -17.4375 C 9.335938 -18.257812 11 -18.957031 12.75 -19.53125 C 14.5 -20.113281 16.148438 -20.664062 17.703125 -21.1875 C 19.253906 -21.707031 20.53125 -22.316406 21.53125 -23.015625 C 22.53125 -23.722656 23.03125 -24.648438 23.03125 -25.796875 L 23.03125 -31.28125 C 23.03125 -32.875 22.789062 -34.179688 22.3125 -35.203125 C 21.832031 -36.234375 21.128906 -37.007812 20.203125 -37.53125 C 19.285156 -38.0625 18.125 -38.328125 16.71875 -38.328125 C 15.675781 -38.328125 14.578125 -38.175781 13.421875 -37.875 C 12.273438 -37.570312 11.328125 -37 10.578125 -36.15625 C 11.878906 -35.800781 12.890625 -35.148438 13.609375 -34.203125 C 14.335938 -33.253906 14.703125 -32.101562 14.703125 -30.75 C 14.703125 -29.195312 14.1875 -27.984375 13.15625 -27.109375 C 12.132812 -26.234375 10.847656 -25.796875 9.296875 -25.796875 C 7.648438 -25.796875 6.398438 -26.320312 5.546875 -27.375 C 4.703125 -28.425781 4.28125 -29.648438 4.28125 -31.046875 C 4.28125 -32.453125 4.628906 -33.613281 5.328125 -34.53125 C 6.023438 -35.457031 7 -36.296875 8.25 -37.046875 C 9.5 -37.898438 11.097656 -38.578125 13.046875 -39.078125 C 14.992188 -39.578125 17.117188 -39.828125 19.421875 -39.828125 C 21.617188 -39.828125 23.566406 -39.585938 25.265625 -39.109375 C 26.972656 -38.640625 28.425781 -37.800781 29.625 -36.59375 C 30.820312 -35.445312 31.59375 -34.023438 31.9375 -32.328125 C 32.289062 -30.628906 32.46875 -28.550781 32.46875 -26.09375 L 32.46875 -5.546875 C 32.46875 -4.296875 32.617188 -3.40625 32.921875 -2.875 C 33.222656 -2.351562 33.695312 -2.09375 34.34375 -2.09375 C 34.84375 -2.09375 35.316406 -2.21875 35.765625 -2.46875 C 36.222656 -2.71875 36.726562 -3.070312 37.28125 -3.53125 L 38.09375 -2.25 C 37 -1.394531 35.847656 -0.71875 34.640625 -0.21875 C 33.441406 0.28125 31.992188 0.53125 30.296875 0.53125 C 28.546875 0.53125 27.15625 0.28125 26.125 -0.21875 C 25.101562 -0.71875 24.351562 -1.441406 23.875 -2.390625 C 23.40625 -3.347656 23.144531 -4.476562 23.09375 -5.78125 C 21.894531 -3.78125 20.421875 -2.226562 18.671875 -1.125 C 16.921875 -0.0195312 14.820312 0.53125 12.375 0.53125 Z M 16.875 -3.671875 C 18.070312 -3.671875 19.179688 -3.992188 20.203125 -4.640625 C 21.234375 -5.296875 22.175781 -6.273438 23.03125 -7.578125 L 23.03125 -22.71875 C 22.53125 -21.96875 21.816406 -21.289062 20.890625 -20.6875 C 19.960938 -20.09375 18.972656 -19.492188 17.921875 -18.890625 C 16.867188 -18.296875 15.878906 -17.609375 14.953125 -16.828125 C 14.035156 -16.054688 13.265625 -15.109375 12.640625 -13.984375 C 12.015625 -12.859375 11.703125 -11.421875 11.703125 -9.671875 C 11.703125 -7.722656 12.175781 -6.234375 13.125 -5.203125 C 14.070312 -4.179688 15.320312 -3.671875 16.875 -3.671875 Z M 16.875 -3.671875 "/></g></g></g><g fill="#000000" fill-opacity="1"><g transform="translate(98.849371, 217.499986)"><g><path d="M 16.046875 -39.53125 L 16.046875 6.296875 C 16.046875 8.546875 16.65625 10.054688 17.875 10.828125 C 19.101562 11.609375 20.796875 12 22.953125 12 L 22.953125 13.578125 C 21.753906 13.523438 20.066406 13.460938 17.890625 13.390625 C 15.710938 13.316406 13.398438 13.28125 10.953125 13.28125 C 9.253906 13.28125 7.550781 13.316406 5.84375 13.390625 C 4.144531 13.460938 2.847656 13.523438 1.953125 13.578125 L 1.953125 12 C 3.648438 12 4.847656 11.648438 5.546875 10.953125 C 6.242188 10.253906 6.59375 8.953125 6.59375 7.046875 L 6.59375 -30.53125 C 6.59375 -32.78125 6.242188 -34.441406 5.546875 -35.515625 C 4.847656 -36.585938 3.5 -37.125 1.5 -37.125 L 1.5 -38.703125 C 3.101562 -38.546875 4.65625 -38.46875 6.15625 -38.46875 C 8.050781 -38.46875 9.820312 -38.554688 11.46875 -38.734375 C 13.125 -38.910156 14.648438 -39.175781 16.046875 -39.53125 Z M 27.828125 -39.828125 C 30.421875 -39.828125 32.742188 -39.113281 34.796875 -37.6875 C 36.847656 -36.257812 38.460938 -34.171875 39.640625 -31.421875 C 40.816406 -28.671875 41.40625 -25.222656 41.40625 -21.078125 C 41.40625 -17.773438 41.03125 -14.757812 40.28125 -12.03125 C 39.53125 -9.3125 38.414062 -6.972656 36.9375 -5.015625 C 35.457031 -3.066406 33.644531 -1.566406 31.5 -0.515625 C 29.351562 0.523438 26.90625 1.046875 24.15625 1.046875 C 22.050781 1.046875 20.171875 0.648438 18.515625 -0.140625 C 16.867188 -0.941406 15.671875 -2.019531 14.921875 -3.375 L 15.671875 -4.421875 C 16.273438 -3.367188 17.097656 -2.519531 18.140625 -1.875 C 19.191406 -1.226562 20.445312 -0.90625 21.90625 -0.90625 C 24.300781 -0.90625 26.195312 -1.691406 27.59375 -3.265625 C 29 -4.835938 29.988281 -7.046875 30.5625 -9.890625 C 31.132812 -12.742188 31.421875 -16.046875 31.421875 -19.796875 C 31.421875 -23.953125 31.144531 -27.28125 30.59375 -29.78125 C 30.050781 -32.28125 29.226562 -34.09375 28.125 -35.21875 C 27.019531 -36.34375 25.71875 -36.90625 24.21875 -36.90625 C 22.175781 -36.90625 20.34375 -36.09375 18.71875 -34.46875 C 17.09375 -32.84375 16.101562 -30.476562 15.75 -27.375 L 15.21875 -29.46875 C 16.019531 -32.769531 17.546875 -35.320312 19.796875 -37.125 C 22.046875 -38.925781 24.722656 -39.828125 27.828125 -39.828125 Z M 27.828125 -39.828125 "/></g></g></g><g fill="#000000" fill-opacity="1"><g transform="translate(143.324325, 217.499986)"><g><path d="M 12.375 0.53125 C 10.226562 0.53125 8.40625 0.117188 6.90625 -0.703125 C 5.40625 -1.535156 4.28125 -2.660156 3.53125 -4.078125 C 2.78125 -5.503906 2.40625 -7.09375 2.40625 -8.84375 C 2.40625 -11 2.90625 -12.765625 3.90625 -14.140625 C 4.90625 -15.515625 6.191406 -16.613281 7.765625 -17.4375 C 9.335938 -18.257812 11 -18.957031 12.75 -19.53125 C 14.5 -20.113281 16.148438 -20.664062 17.703125 -21.1875 C 19.253906 -21.707031 20.53125 -22.316406 21.53125 -23.015625 C 22.53125 -23.722656 23.03125 -24.648438 23.03125 -25.796875 L 23.03125 -31.28125 C 23.03125 -32.875 22.789062 -34.179688 22.3125 -35.203125 C 21.832031 -36.234375 21.128906 -37.007812 20.203125 -37.53125 C 19.285156 -38.0625 18.125 -38.328125 16.71875 -38.328125 C 15.675781 -38.328125 14.578125 -38.175781 13.421875 -37.875 C 12.273438 -37.570312 11.328125 -37 10.578125 -36.15625 C 11.878906 -35.800781 12.890625 -35.148438 13.609375 -34.203125 C 14.335938 -33.253906 14.703125 -32.101562 14.703125 -30.75 C 14.703125 -29.195312 14.1875 -27.984375 13.15625 -27.109375 C 12.132812 -26.234375 10.847656 -25.796875 9.296875 -25.796875 C 7.648438 -25.796875 6.398438 -26.320312 5.546875 -27.375 C 4.703125 -28.425781 4.28125 -29.648438 4.28125 -31.046875 C 4.28125 -32.453125 4.628906 -33.613281 5.328125 -34.53125 C 6.023438 -35.457031 7 -36.296875 8.25 -37.046875 C 9.5 -37.898438 11.097656 -38.578125 13.046875 -39.078125 C 14.992188 -39.578125 17.117188 -39.828125 19.421875 -39.828125 C 21.617188 -39.828125 23.566406 -39.585938 25.265625 -39.109375 C 26.972656 -38.640625 28.425781 -37.800781 29.625 -36.59375 C 30.820312 -35.445312 31.59375 -34.023438 31.9375 -32.328125 C 32.289062 -30.628906 32.46875 -28.550781 32.46875 -26.09375 L 32.46875 -5.546875 C 32.46875 -4.296875 32.617188 -3.40625 32.921875 -2.875 C 33.222656 -2.351562 33.695312 -2.09375 34.34375 -2.09375 C 34.84375 -2.09375 35.316406 -2.21875 35.765625 -2.46875 C 36.222656 -2.71875 36.726562 -3.070312 37.28125 -3.53125 L 38.09375 -2.25 C 37 -1.394531 35.847656 -0.71875 34.640625 -0.21875 C 33.441406 0.28125 31.992188 0.53125 30.296875 0.53125 C 28.546875 0.53125 27.15625 0.28125 26.125 -0.21875 C 25.101562 -0.71875 24.351562 -1.441406 23.875 -2.390625 C 23.40625 -3.347656 23.144531 -4.476562 23.09375 -5.78125 C 21.894531 -3.78125 20.421875 -2.226562 18.671875 -1.125 C 16.921875 -0.0195312 14.820312 0.53125 12.375 0.53125 Z M 16.875 -3.671875 C 18.070312 -3.671875 19.179688 -3.992188 20.203125 -4.640625 C 21.234375 -5.296875 22.175781 -6.273438 23.03125 -7.578125 L 23.03125 -22.71875 C 22.53125 -21.96875 21.816406 -21.289062 20.890625 -20.6875 C 19.960938 -20.09375 18.972656 -19.492188 17.921875 -18.890625 C 16.867188 -18.296875 15.878906 -17.609375 14.953125 -16.828125 C 14.035156 -16.054688 13.265625 -15.109375 12.640625 -13.984375 C 12.015625 -12.859375 11.703125 -11.421875 11.703125 -9.671875 C 11.703125 -7.722656 12.175781 -6.234375 13.125 -5.203125 C 14.070312 -4.179688 15.320312 -3.671875 16.875 -3.671875 Z M 16.875 -3.671875 "/></g></g></g><g fill="#000000" fill-opacity="1"><g transform="translate(181.649281, 217.499986)"><g><path d="M 26.84375 -39.828125 C 28.394531 -39.828125 29.679688 -39.5 30.703125 -38.84375 C 31.734375 -38.195312 32.5 -37.375 33 -36.375 C 33.5 -35.375 33.75 -34.320312 33.75 -33.21875 C 33.75 -31.570312 33.257812 -30.195312 32.28125 -29.09375 C 31.3125 -28 30.023438 -27.453125 28.421875 -27.453125 C 26.921875 -27.453125 25.695312 -27.847656 24.75 -28.640625 C 23.800781 -29.441406 23.328125 -30.546875 23.328125 -31.953125 C 23.328125 -33.203125 23.640625 -34.25 24.265625 -35.09375 C 24.890625 -35.945312 25.601562 -36.625 26.40625 -37.125 C 25.851562 -37.425781 25.226562 -37.523438 24.53125 -37.421875 C 23.320312 -37.328125 22.21875 -36.90625 21.21875 -36.15625 C 20.21875 -35.40625 19.367188 -34.476562 18.671875 -33.375 C 17.972656 -32.269531 17.4375 -31.09375 17.0625 -29.84375 C 16.6875 -28.59375 16.5 -27.394531 16.5 -26.25 L 16.5 -7.71875 C 16.5 -5.269531 17.125 -3.632812 18.375 -2.8125 C 19.625 -1.988281 21.445312 -1.578125 23.84375 -1.578125 L 23.84375 0 C 22.695312 -0.0507812 21.035156 -0.113281 18.859375 -0.1875 C 16.679688 -0.257812 14.421875 -0.296875 12.078125 -0.296875 C 10.128906 -0.296875 8.191406 -0.257812 6.265625 -0.1875 C 4.335938 -0.113281 2.898438 -0.0507812 1.953125 0 L 1.953125 -1.578125 C 3.796875 -1.578125 5.101562 -1.953125 5.875 -2.703125 C 6.65625 -3.453125 7.046875 -4.875 7.046875 -6.96875 L 7.046875 -30.59375 C 7.046875 -32.84375 6.679688 -34.503906 5.953125 -35.578125 C 5.234375 -36.660156 3.898438 -37.203125 1.953125 -37.203125 L 1.953125 -38.78125 C 3.546875 -38.625 5.09375 -38.546875 6.59375 -38.546875 C 8.445312 -38.546875 10.210938 -38.632812 11.890625 -38.8125 C 13.566406 -38.988281 15.101562 -39.25 16.5 -39.59375 L 16.5 -31.796875 C 17.101562 -33.203125 17.890625 -34.503906 18.859375 -35.703125 C 19.835938 -36.898438 21.015625 -37.882812 22.390625 -38.65625 C 23.765625 -39.4375 25.25 -39.828125 26.84375 -39.828125 Z M 26.84375 -39.828125 "/></g></g></g><g fill="#000000" fill-opacity="1"><g transform="translate(216.074251, 217.499986)"><g><path d="M 16.125 -51.078125 L 16.125 -38.703125 L 25.71875 -38.703125 L 25.71875 -37.203125 L 16.125 -37.203125 L 16.125 -7.34375 C 16.125 -5.550781 16.445312 -4.28125 17.09375 -3.53125 C 17.75 -2.78125 18.675781 -2.40625 19.875 -2.40625 C 21.019531 -2.40625 22.066406 -2.84375 23.015625 -3.71875 C 23.972656 -4.59375 24.828125 -6.050781 25.578125 -8.09375 L 26.921875 -7.5 C 26.171875 -5.050781 25.007812 -3.015625 23.4375 -1.390625 C 21.863281 0.234375 19.648438 1.046875 16.796875 1.046875 C 15.097656 1.046875 13.660156 0.832031 12.484375 0.40625 C 11.304688 -0.0078125 10.296875 -0.617188 9.453125 -1.421875 C 8.347656 -2.578125 7.609375 -3.953125 7.234375 -5.546875 C 6.859375 -7.148438 6.671875 -9.273438 6.671875 -11.921875 L 6.671875 -37.203125 L 0.078125 -37.203125 L 0.078125 -38.703125 L 6.671875 -38.703125 L 6.671875 -49.125 C 8.472656 -49.175781 10.148438 -49.347656 11.703125 -49.640625 C 13.253906 -49.941406 14.726562 -50.421875 16.125 -51.078125 Z M 16.125 -51.078125 "/></g></g></g><g fill="#000000" fill-opacity="1"><g transform="translate(242.324226, 217.499986)"><g><path d="M 20.84375 -39.828125 C 25.25 -39.828125 28.703125 -38.5 31.203125 -35.84375 C 33.703125 -33.195312 34.953125 -28.972656 34.953125 -23.171875 L 9.671875 -23.171875 L 9.59375 -24.59375 L 26.25 -24.59375 C 26.351562 -27.050781 26.203125 -29.316406 25.796875 -31.390625 C 25.398438 -33.460938 24.765625 -35.125 23.890625 -36.375 C 23.015625 -37.625 21.875 -38.25 20.46875 -38.25 C 18.570312 -38.25 16.921875 -37.132812 15.515625 -34.90625 C 14.117188 -32.6875 13.25 -29.050781 12.90625 -24 L 13.203125 -23.546875 C 13.097656 -22.898438 13.03125 -22.203125 13 -21.453125 C 12.976562 -20.703125 12.96875 -19.953125 12.96875 -19.203125 C 12.96875 -15.753906 13.46875 -12.90625 14.46875 -10.65625 C 15.46875 -8.40625 16.769531 -6.753906 18.375 -5.703125 C 19.976562 -4.648438 21.628906 -4.125 23.328125 -4.125 C 24.472656 -4.125 25.644531 -4.296875 26.84375 -4.640625 C 28.050781 -4.992188 29.226562 -5.644531 30.375 -6.59375 C 31.519531 -7.550781 32.570312 -8.90625 33.53125 -10.65625 L 34.953125 -10.046875 C 34.398438 -8.296875 33.484375 -6.554688 32.203125 -4.828125 C 30.929688 -3.109375 29.296875 -1.695312 27.296875 -0.59375 C 25.296875 0.5 22.945312 1.046875 20.25 1.046875 C 16.851562 1.046875 13.851562 0.296875 11.25 -1.203125 C 8.644531 -2.703125 6.617188 -4.9375 5.171875 -7.90625 C 3.722656 -10.882812 3 -14.523438 3 -18.828125 C 3 -23.378906 3.757812 -27.203125 5.28125 -30.296875 C 6.8125 -33.398438 8.925781 -35.765625 11.625 -37.390625 C 14.320312 -39.015625 17.394531 -39.828125 20.84375 -39.828125 Z M 20.84375 -39.828125 "/></g></g></g><g fill="#000000" fill-opacity="1"><g transform="translate(280.199189, 217.499986)"><g><path d="M 16.28125 -39.828125 C 18.375 -39.828125 20.171875 -39.523438 21.671875 -38.921875 C 23.171875 -38.328125 24.269531 -37.800781 24.96875 -37.34375 C 26.675781 -36.09375 27.703125 -36.894531 28.046875 -39.75 L 29.703125 -39.75 C 29.597656 -38.300781 29.519531 -36.585938 29.46875 -34.609375 C 29.425781 -32.640625 29.40625 -30.003906 29.40625 -26.703125 L 27.75 -26.703125 C 27.5 -28.546875 27.023438 -30.34375 26.328125 -32.09375 C 25.628906 -33.84375 24.601562 -35.304688 23.25 -36.484375 C 21.894531 -37.660156 20.117188 -38.25 17.921875 -38.25 C 16.367188 -38.25 15.082031 -37.796875 14.0625 -36.890625 C 13.039062 -35.992188 12.53125 -34.722656 12.53125 -33.078125 C 12.53125 -31.578125 12.976562 -30.265625 13.875 -29.140625 C 14.769531 -28.015625 15.929688 -26.960938 17.359375 -25.984375 C 18.785156 -25.015625 20.273438 -23.953125 21.828125 -22.796875 C 23.628906 -21.597656 25.226562 -20.382812 26.625 -19.15625 C 28.019531 -17.9375 29.144531 -16.585938 30 -15.109375 C 30.851562 -13.640625 31.28125 -11.90625 31.28125 -9.90625 C 31.28125 -7.601562 30.640625 -5.640625 29.359375 -4.015625 C 28.085938 -2.390625 26.410156 -1.140625 24.328125 -0.265625 C 22.253906 0.609375 19.96875 1.046875 17.46875 1.046875 C 16.125 1.046875 14.898438 0.921875 13.796875 0.671875 C 12.703125 0.421875 11.726562 0.0976562 10.875 -0.296875 C 10.226562 -0.648438 9.640625 -0.972656 9.109375 -1.265625 C 8.585938 -1.566406 8.050781 -1.820312 7.5 -2.03125 C 7 -2.28125 6.5625 -2.175781 6.1875 -1.71875 C 5.8125 -1.269531 5.523438 -0.519531 5.328125 0.53125 L 3.671875 0.53125 C 3.773438 -1.070312 3.847656 -3.023438 3.890625 -5.328125 C 3.941406 -7.628906 3.96875 -10.675781 3.96875 -14.46875 L 5.625 -14.46875 C 5.976562 -11.71875 6.515625 -9.304688 7.234375 -7.234375 C 7.960938 -5.160156 9.023438 -3.535156 10.421875 -2.359375 C 11.828125 -1.179688 13.628906 -0.59375 15.828125 -0.59375 C 16.773438 -0.59375 17.6875 -0.789062 18.5625 -1.1875 C 19.4375 -1.59375 20.160156 -2.21875 20.734375 -3.0625 C 21.304688 -3.914062 21.59375 -5.070312 21.59375 -6.53125 C 21.59375 -8.726562 20.84375 -10.550781 19.34375 -12 C 17.84375 -13.445312 15.96875 -15 13.71875 -16.65625 C 12.019531 -17.90625 10.429688 -19.128906 8.953125 -20.328125 C 7.484375 -21.523438 6.285156 -22.875 5.359375 -24.375 C 4.429688 -25.875 3.96875 -27.648438 3.96875 -29.703125 C 3.96875 -31.953125 4.539062 -33.8125 5.6875 -35.28125 C 6.84375 -36.757812 8.359375 -37.882812 10.234375 -38.65625 C 12.109375 -39.4375 14.125 -39.828125 16.28125 -39.828125 Z M 16.28125 -39.828125 "/></g></g></g><path stroke-linecap="butt" transform="matrix(0.75, 0, 0, 0.75, 252.598874, 167.782254)" fill="none" stroke-linejoin="miter" d="M -0.00162408 0.998662 L 25.107753 0.998662 " stroke="#000000" stroke-width="2" stroke-opacity="1" stroke-miterlimit="4"/></svg>